/* XPM */
static char *app_icon_xpm[] = {
"32 32 47 1",
" 	c None",
".	c #FFFFFF",
"+	c #C0C0C0",
"@	c #F1F1F1",
"#	c #EAEAEA",
"$	c #E3E3E3",
"%	c #DDDDDD",
"&	c #D7D7D7",
"*	c #CCCCCC",
"=	c #CC9999",
"-	c #C0C0C0",
";	c #B2B2B2",
">	c #ADA990",
",	c #A0A0A4",
"'	c #9999CC",
")	c #999999",
"!	c #999966",
"~	c #996666",
"{	c #996633",
"]	c #993333",
"^	c #969696",
"/	c #868686",
"(	c #777777",
"_	c #666699",
":	c #666666",
"<	c #666633",
"[	c #663333",
"}	c #663300",
"|	c #660033",
"1	c #660000",
"2	c #5F5F5F",
"3	c #555555",
"4	c #4D4D4D",
"5	c #424242",
"6	c #393939",
"7	c #333366",
"8	c #333333",
"9	c #333300",
"0	c #330033",
"a	c #330000",
"b	c #292929",
"c	c #222222",
"d	c #1C1C1C",
"e	c #161616",
"f	c #0C0C0C",
"g	c #040404",
"h	c #000033",
"             c[<[c}daf          ",
"           ea<4[cb[<}agg        ",
"          e9[<:2dgb[cc}gg       ",
"         g9[!3/;!8aaca5ca       ",
"         a[<a[a[4[[4aa[[<g      ",
"        9[<((,;/:b<[ca9[aa      ",
"        9[24d~^/25a6c[a99ag     ",
"       a<[a|[48[[e3a9[aca[g     ",
"      a<[f2((/)/(4cbdacabaf     ",
"      9f::(^[c[9:[ac9cada[a     ",
"     a[~>,::~3<2::142<6a9f4g    ",
"     99)/2<}3aeeaecd52:<a[af    ",
"     a22[9/*^-;-/-/^ec[3a96a    ",
"    a>[83,-^;(:(^-;#/[dd1a8a    ",
"    a3c8;cffeh2eecbc:^]dd88d    ",
"   a:[d2^eggfdfggggcb2;c1[bag   ",
"   9:4c5degg.eeggg*fdb^d}36ag   ",
"  f~<(4aedg.;efgg.;gdc:e9248g   ",
"  a<,,:fe2efff)e;gggc:;a[~2cag  ",
" g<~((f~c,,:f.@)h;-^_)3b9<~39e  ",
" f~<)(:ddd;g;-g;:e/(^38922[:4ag ",
"ga[^:(:ab(@;@g.;-)3468c]f/63[dfg",
"f9[:2(3c84@gf@-gg@466d<e;:([:afg",
"aa4^3:d387*efffff#b56:a,:=d559ag",
"<93>[34d352-3;,b;4678d{f(4c[([4g",
"}a[;45~d,:,83$c^543(5bf[:3[)/ed8",
"[ac(~6f^-;.;&%$^;,^*:8[3[a4)2[af",
"9<0[85d'(gfeedddhdf(4beba8~(ebbe",
"3b2e[b42fg(@@@@#(74d4badd[^d[d5f",
"a2[3aa95:/;/---^:3748[aa[(a<d3d8",
"4f[a3fa9a<:::356655deada5c3e2caf",
"4afdg:g(<gg3b5566bdaa9aae(d:6gdc"};
